<?xml version="1.0" standalone="no"?><!DOCTYPE svg PUBLIC "-//W3C//DTD SVG 1.1//EN" "http://www.w3.org/Graphics/SVG/1.1/DTD/svg11.dtd"><svg t="1624769499314" class="icon" viewBox="0 0 1024 1024" version="1.1" xmlns="http://www.w3.org/2000/svg" p-id="15541" xmlns:xlink="http://www.w3.org/1999/xlink" width="200" height="200"><defs><style type="text/css"></style></defs><path d="M960.159508 195.871039c0-26.770713-21.720697-48.483224-48.498574-48.483224L385.791042 147.387815c-26.777877 0-48.498574 21.712511-48.498574 48.483224l0 115.726721c0 26.770713 21.720697 48.483224 48.498574 48.483224l525.870916 0c26.777877 0 48.498574-21.712511 48.498574-48.483224L960.160531 195.871039zM929.7755 311.575248c0 10.014074-8.114818 18.121729-18.113543 18.121729L385.791042 329.696977c-10.014074 0-18.113543-8.107655-18.113543-18.121729L367.677499 195.893552c0-10.006911 8.099469-18.114566 18.113543-18.114566l525.870916 0c9.998725 0 18.113543 8.107655 18.113543 18.114566L929.7755 311.575248zM960.159508 454.140221c0-26.7789-21.720697-48.483224-48.498574-48.483224L385.791042 405.656997c-26.777877 0-48.498574 21.704324-48.498574 48.483224l0 115.718535c0 26.771737 21.720697 48.491411 48.498574 48.491411l525.870916 0c26.777877 0 48.498574-21.719674 48.498574-48.491411L960.160531 454.140221zM929.7755 569.844429c0 10.005888-8.114818 18.121729-18.113543 18.121729L385.791042 587.966159c-10.014074 0-18.113543-8.115841-18.113543-18.121729L367.677499 454.154547c0-10.006911 8.099469-18.114566 18.113543-18.114566l525.870916 0c9.998725 0 18.113543 8.107655 18.113543 18.114566L929.7755 569.844429zM960.159508 712.394053c0-26.7789-21.720697-48.483224-48.498574-48.483224L385.791042 663.910828c-26.777877 0-48.498574 21.704324-48.498574 48.483224l0 115.733884c0 26.76355 21.720697 48.484248 48.498574 48.484248l525.870916 0c26.777877 0 48.498574-21.720697 48.498574-48.484248L960.160531 712.394053zM929.7755 828.099285c0 9.998725-8.114818 18.114566-18.113543 18.114566L385.791042 846.213851c-10.014074 0-18.113543-8.115841-18.113543-18.114566L367.677499 712.409402c0-9.998725 8.099469-18.10024 18.113543-18.10024l525.870916 0c9.998725 0 18.113543 8.100492 18.113543 18.10024L929.7755 828.099285zM306.909483 195.871039c0-26.770713-21.720697-48.483224-48.498574-48.483224L112.33702 147.387815c-26.7789 0-48.498574 21.712511-48.498574 48.483224l0 115.726721c0 26.770713 21.719674 48.483224 48.498574 48.483224l146.07389 0c26.777877 0 48.498574-21.712511 48.498574-48.483224L306.909483 195.871039zM276.525476 311.575248c0 10.014074-8.114818 18.121729-18.113543 18.121729L112.33702 329.696977c-10.014074 0-18.114566-8.107655-18.114566-18.121729L94.222453 195.893552c0-10.006911 8.100492-18.114566 18.114566-18.114566l146.07389 0c9.998725 0 18.113543 8.107655 18.113543 18.114566L276.524452 311.575248zM306.909483 454.140221c0-26.7789-21.720697-48.483224-48.498574-48.483224L112.33702 405.656997c-26.7789 0-48.498574 21.704324-48.498574 48.483224l0 115.718535c0 26.771737 21.719674 48.491411 48.498574 48.491411l146.07389 0c26.777877 0 48.498574-21.719674 48.498574-48.491411L306.909483 454.140221zM276.525476 569.844429c0 10.005888-8.114818 18.121729-18.113543 18.121729L112.33702 587.966159c-10.014074 0-18.114566-8.115841-18.114566-18.121729L94.222453 454.154547c0-10.006911 8.100492-18.114566 18.114566-18.114566l146.07389 0c9.998725 0 18.113543 8.107655 18.113543 18.114566L276.524452 569.844429zM306.909483 712.394053c0-26.7789-21.720697-48.483224-48.498574-48.483224L112.33702 663.910828c-26.7789 0-48.498574 21.704324-48.498574 48.483224l0 115.733884c0 26.76355 21.719674 48.484248 48.498574 48.484248l146.07389 0c26.777877 0 48.498574-21.720697 48.498574-48.484248L306.909483 712.394053zM276.525476 828.099285c0 9.998725-8.114818 18.114566-18.113543 18.114566L112.33702 846.213851c-10.014074 0-18.114566-8.115841-18.114566-18.114566L94.222453 712.409402c0-9.998725 8.100492-18.10024 18.114566-18.10024l146.07389 0c9.998725 0 18.113543 8.100492 18.113543 18.10024L276.524452 828.099285z" p-id="15542"></path></svg>