<?xml version="1.0" standalone="no"?><!DOCTYPE svg PUBLIC "-//W3C//DTD SVG 1.1//EN" "http://www.w3.org/Graphics/SVG/1.1/DTD/svg11.dtd"><svg t="1624769341366" class="icon" viewBox="0 0 1024 1024" version="1.1" xmlns="http://www.w3.org/2000/svg" p-id="14021" xmlns:xlink="http://www.w3.org/1999/xlink" width="200" height="200"><defs><style type="text/css"></style></defs><path d="M64.405869 64.12139l0 894.517997 893.460921 0L957.86679 64.12139 64.405869 64.12139zM908.2303 908.942521 114.043383 908.942521 114.043383 113.819279l794.186917 0L908.2303 908.942521z" p-id="14022"></path><path d="M560.77282 262.901689l248.183476 0 0 49.696866-248.183476 0 0-49.696866Z" p-id="14023"></path><path d="M560.77282 411.990239l248.183476 0 0 49.696866-248.183476 0 0-49.696866Z" p-id="14024"></path><path d="M213.316364 710.162222l595.639932 0 0 49.696866-595.639932 0 0-49.696866Z" p-id="14025"></path><path d="M262.952854 312.598554 312.589344 312.598554 312.589344 610.773607 362.226858 610.773607 362.226858 312.598554 411.863349 312.598554 411.863349 362.293373 461.499839 362.293373 461.499839 312.598554 461.499839 262.901689 213.316364 262.901689 213.316364 312.598554 213.316364 362.293373 262.952854 362.293373Z" p-id="14026"></path><path d="M560.77282 561.073672l248.183476 0 0 49.699935-248.183476 0 0-49.699935Z" p-id="14027"></path></svg>