<?xml version="1.0" standalone="no"?><!DOCTYPE svg PUBLIC "-//W3C//DTD SVG 1.1//EN" "http://www.w3.org/Graphics/SVG/1.1/DTD/svg11.dtd"><svg t="1624767672096" class="icon" viewBox="0 0 1024 1024" version="1.1" xmlns="http://www.w3.org/2000/svg" p-id="6640" xmlns:xlink="http://www.w3.org/1999/xlink" width="200" height="200"><defs><style type="text/css"></style></defs><path d="M451.4 534.8L122 368.4c-36.3-18.3-36.3-70.1 0-88.4l329.8-166.7c39.7-20.1 86.5-20.1 126.3-0.2l320.4 160.8c40.1 20.1 40.3 77.3 0.3 97.7l-320.5 163c-39.9 20.3-87 20.3-126.9 0.2z" p-id="6641"></path><path d="M513.9 736.4c-32.4 0-64.8-7.3-94.4-21.8L120.9 567.8c-22.5-11.1-31.8-38.3-20.8-60.9 11.1-22.6 38.4-31.8 60.9-20.8L459.6 633c34.3 16.8 75.1 16.7 109.2-0.3l293.4-146.3c22.5-11.2 49.8-2.1 61 20.4 11.2 22.5 2.1 49.8-20.4 61L609.5 714c-29.9 14.9-62.7 22.4-95.6 22.4z" p-id="6642"></path><path d="M513.9 927.1c-32.4 0-64.8-7.3-94.4-21.8L120.9 758.5c-22.5-11.1-31.8-38.3-20.8-60.9 11.1-22.5 38.4-31.8 60.9-20.8l298.6 146.8c34.2 16.8 75.1 16.7 109.2-0.3L862.2 677c22.5-11.2 49.8-2.1 61 20.4 11.2 22.5 2.1 49.8-20.4 61L609.5 904.7c-29.9 14.9-62.7 22.4-95.6 22.4z" p-id="6643"></path></svg>